<?xml version="1.0" encoding="iso-8859-1"?>
<!-- Uploaded to: SVG Repo, www.svgrepo.com, Generator: SVG Repo Mixer Tools -->
<svg version="1.1" id="Layer_1" xmlns="http://www.w3.org/2000/svg" xmlns:xlink="http://www.w3.org/1999/xlink" 
	 viewBox="0 0 512 512" xml:space="preserve">
<rect x="53.451" y="8.44" style="fill:#FFECD4;" width="405.099" height="495.121"/>
<polygon style="fill:#12728F;" points="98.462,53.451 98.462,368.527 139.051,368.527 256,334.769 372.949,368.527 413.538,368.527 
	413.538,53.451 "/>
<path style="fill:#5ED6B4;" d="M161.557,368.527h188.885c-6.615-52.805-46.375-93.398-94.443-93.398
	S168.172,315.723,161.557,368.527z"/>
<circle style="fill:#FF8D46;" cx="255.437" cy="189.046" r="62.453"/>
<path d="M458.549,512H53.451c-4.662,0-8.44-3.779-8.44-8.44V8.44c0-4.661,3.778-8.44,8.44-8.44h405.099
	c4.662,0,8.44,3.779,8.44,8.44V503.56C466.989,508.221,463.211,512,458.549,512z M61.89,495.121h388.22V16.879H61.89V495.121z"/>
<path d="M413.538,376.967H98.462c-4.662,0-8.44-3.779-8.44-8.44V53.451c0-4.661,3.778-8.44,8.44-8.44h315.077
	c4.662,0,8.44,3.779,8.44,8.44v67.516c0,4.661-3.778,8.44-8.44,8.44s-8.44-3.779-8.44-8.44V61.89H106.901v298.198h298.198V154.725
	c0-4.661,3.778-8.44,8.44-8.44s8.44,3.779,8.44,8.44v213.802C421.978,373.188,418.201,376.967,413.538,376.967z"/>
<path d="M256,253.187c-35.678,0-64.703-29.025-64.703-64.703S220.322,123.78,256,123.78s64.703,29.025,64.703,64.703
	S291.678,253.187,256,253.187z M256,140.659c-26.371,0-47.824,21.453-47.824,47.824s21.453,47.824,47.824,47.824
	s47.824-21.453,47.824-47.824S282.371,140.659,256,140.659z"/>
<path d="M256,219.417c-8.273,0-16.044-3.215-21.882-9.053c-3.296-3.296-3.296-8.64,0-11.935c3.297-3.296,8.64-3.296,11.936,0
	c2.649,2.65,6.181,4.108,9.946,4.108c3.765,0,7.296-1.458,9.946-4.108c3.297-3.296,8.64-3.296,11.936,0
	c3.296,3.296,3.296,8.64,0,11.935C272.044,216.202,264.273,219.417,256,219.417z"/>
<path d="M339.456,343.211c-3.338,0-6.496-1.992-7.826-5.274c-12.541-30.977-42.228-50.992-75.63-50.992s-63.087,20.015-75.63,50.992
	c-1.75,4.32-6.672,6.405-10.991,4.655c-4.321-1.75-6.404-6.67-4.656-10.991c15.137-37.382,50.965-61.536,91.277-61.536
	s76.139,24.154,91.276,61.536c1.749,4.32-0.335,9.241-4.656,10.991C341.583,343.012,340.51,343.211,339.456,343.211z"/>
</svg>